:SAMPLES-PER-SECOND 30
:FULLY-SPECIFIED
:DEGREES
615
root  -22.0625 32.3221 2.95977 -24.5487 -67.3854 23.7589
RightUpLeg  -44.9601 -4.70287 -29.5008
RightLeg  57.9496 -0.295833 -0.965022
RightFoot  -7.0001 -0.429062 10.0273
RightToes  9.54606e-009 0 -3.6325e-017
Spine  41.988 -1.25779 2.0261
Spine1  8.93658 -2.57561 8.76392
HEad  -45.1302 -11.087 0.325333
LeftShoulder1  1.05305 0.254833 -26.2446
LeftArm  -15.2465 -31.0573 -44.9856
LeftForeArm  17.4238 -12.4605 -2.80739
LeftHand  -0.00161997 7.89907 1.78231
RightShoulder  -0.215782 -4.16222 25.2267
RightArm  -13.1356 10.7121 41.9593
RightForeArm  45.3678 72.3403 31.6193
RightHand  -0.582762 6.32234 -6.10132
LeftUpLeg  -34.6112 14.7931 -14.8124
LeftLeg  68.4698 2.16563 6.90792
LeftFoot  -30.1104 1.38785 7.28568
LeftToes  -8.26734e-010 9.74065e-011 1.64617e-011
616
root  -22.5853 32.7777 3.02418 -25.8489 -67.273 24.3165
RightUpLeg  -42.3402 -5.11793 -29.2757
RightLeg  56.7582 -0.068462 -0.546324
RightFoot  -7.90936 -0.345557 9.73144
RightToes  9.54606e-009 0 -3.6325e-017
Spine  40.4108 -1.43961 2.12184
Spine1  7.68029 -3.29301 10.8306
HEad  -44.9996 -8.91362 -0.954819
LeftShoulder1  0.979198 0.427082 -25.6781
LeftArm  -13.9429 -34.094 -46.0241
LeftForeArm  17.1976 -17.9577 -3.47008
LeftHand  -0.00700917 7.88885 1.78002
RightShoulder  -0.200088 -4.11332 25.1741
RightArm  -12.6748 9.08627 40.6275
RightForeArm  41.5017 70.5057 28.2067
RightHand  -0.610434 6.74824 -6.171
LeftUpLeg  -31.4389 15.1792 -14.213
LeftLeg  66.2313 2.28014 6.44978
LeftFoot  -29.9897 1.30692 6.84784
LeftToes  -8.26734e-010 9.74065e-011 1.64617e-011
617
root  -23.1733 33.2395 3.04381 -27.557 -67.3492 25.3122
RightUpLeg  -39.7116 -5.39794 -29.0898
RightLeg  55.5017 0.148292 -0.185796
RightFoot  -9.17108 -0.253382 10.0777
RightToes  9.54606e-009 0 -3.6325e-017
Spine  38.7367 -1.42395 1.87267
Spine1  6.49777 -3.86975 12.8348
HEad  -44.525 -7.01472 -2.41611
LeftShoulder1  1.02607 0.100298 -23.8701
LeftArm  -14.0209 -35.9453 -47.8769
LeftForeArm  19.8324 -23.8078 -4.02599
LeftHand  -0.023209 5.41967 3.83166
RightShoulder  -0.211352 -4.1457 25.3351
RightArm  -11.9643 7.67832 39.1685
RightForeArm  37.9392 68.4598 25.1524
RightHand  -0.636668 6.8325 -6.38068
LeftUpLeg  -28.1398 15.9238 -13.4579
LeftLeg  63.789 2.25586 5.68204
LeftFoot  -29.831 1.23736 6.48764
LeftToes  -8.26734e-010 9.74065e-011 1.64617e-011
618
root  -23.8426 33.7283 3.02438 -29.3228 -67.7472 26.4667
RightUpLeg  -37.1498 -5.71075 -28.6964
RightLeg  54.2338 0.201037 -0.0919919
RightFoot  -10.4645 -0.14918 10.0532
RightToes  9.54606e-009 0 -3.6325e-017
Spine  36.9006 -1.4014 1.53289
Spine1  5.57341 -4.37372 14.5428
HEad  -44.0074 -5.21703 -3.74979
LeftShoulder1  0.971162 0.236656 -23.4308
LeftArm  -13.7305 -38.5018 -48.2259
LeftForeArm  24.1171 -29.143 -4.99889
LeftHand  -0.0653024 4.17106 4.50409
RightShoulder  -0.200916 -4.12158 24.8873
RightArm  -11.2597 6.20935 38.7144
RightForeArm  34.6952 65.9595 22.1393
RightHand  -0.699764 7.04585 -6.8667
LeftUpLeg  -24.7254 16.4189 -12.5469
LeftLeg  61.0504 2.49013 5.50397
LeftFoot  -29.6303 1.1088 5.77165
LeftToes  -8.26734e-010 9.74065e-011 1.64617e-011
619
root  -24.5683 34.2572 2.98669 -30.0228 -68.0172 26.8061
RightUpLeg  -34.5507 -6.74416 -27.921
RightLeg  53.0104 -0.678202 -1.3504
RightFoot  -11.4598 -0.0683916 9.16885
RightToes  9.54606e-009 0 -3.6325e-017
Spine  34.8491 -1.81073 1.66841
Spine1  4.40733 -4.99865 15.8117
HEad  -43.3464 -3.32201 -5.21892
LeftShoulder1  0.885888 0.450303 -22.7064
LeftArm  -12.3787 -40.133 -48.5589
LeftForeArm  26.5187 -34.5966 -6.1811
LeftHand  -0.0549361 4.54089 4.46146
RightShoulder  -0.226482 -4.19662 25.208
RightArm  -9.88607 5.26915 37.6408
RightForeArm  30.7377 62.8166 19.1972
RightHand  -0.779485 6.99278 -7.63836
LeftUpLeg  -21.4058 16.3214 -11.459
LeftLeg  57.9691 2.81375 5.41785
LeftFoot  -29.2621 0.969669 5.02662
LeftToes  -8.26734e-010 9.74065e-011 1.64617e-011
620
root  -25.4025 34.785 2.87018 -31.8346 -68.4088 28.0362
RightUpLeg  -31.6053 -7.95313 -27.3656
RightLeg  51.8896 -1.72007 -2.72105
RightFoot  -12.9363 0.0345605 8.7799
RightToes  9.54606e-009 0 -3.6325e-017
Spine  32.909 -1.80083 1.19899
Spine1  3.41695 -5.47096 17.5623
HEad  -42.6106 -1.54868 -6.99667
LeftShoulder1  0.818023 0.739801 -23.2892
LeftArm  -10.3144 -41.6139 -48.3799
LeftForeArm  27.6246 -38.9792 -7.332
LeftHand  -0.0940718 3.81466 5.88917
RightShoulder  -0.229718 -4.21002 25.0493
RightArm  -8.72551 4.0791 36.8197
RightForeArm  28.3131 59.8299 16.904
RightHand  -0.707366 7.15675 -6.88228
LeftUpLeg  -17.519 16.3689 -10.3186
LeftLeg  54.5495 3.20152 5.34353
LeftFoot  -28.7676 0.784857 3.98594
LeftToes  -8.26734e-010 9.74065e-011 1.64617e-011
621
root  -26.3099 35.3389 2.6943 -33.9225 -69.4381 29.5267
RightUpLeg  -28.7139 -8.86801 -26.4495
RightLeg  50.0622 -1.75657 -2.61354
RightFoot  -13.6783 0.0753597 8.22884
RightToes  9.54606e-009 0 -3.6325e-017
Spine  30.5931 -1.84502 1.28895
Spine1  3.15102 -5.64245 18.1056
HEad  -41.3593 -0.0995331 -8.27597
LeftShoulder1  0.779715 0.810095 -22.6146
LeftArm  -9.13089 -41.5564 -48.7555
LeftForeArm  29.4496 -43.9598 -8.77573
LeftHand  -0.12539 2.90353 5.27685
RightShoulder  -0.286997 -4.38012 25.5234
RightArm  -7.4947 3.11456 35.921
RightForeArm  26.6814 56.9995 15.0633
RightHand  -0.644275 7.23624 -6.26487
LeftUpLeg  -13.3769 16.7908 -8.74277
LeftLeg  50.7342 3.69789 5.31518
LeftFoot  -28.0469 0.585565 2.83954
LeftToes  -8.26734e-010 9.74065e-011 1.64617e-011
622
root  -27.3159 35.8281 2.46135 -35.3232 -70.4473 30.379
RightUpLeg  -25.8518 -10.4963 -25.3362
RightLeg  48.1524 -0.311948 -0.708982
RightFoot  -14.1678 0.0926261 7.62863
RightToes  9.54606e-009 0 -3.6325e-017
Spine  28.3529 -2.06348 1.5405
Spine1  2.49628 -5.83589 18.4727
HEad  -39.7972 1.04924 -9.65479
LeftShoulder1  0.715214 1.05618 -22.895
LeftArm  -7.95677 -40.7731 -48.7966
LeftForeArm  31.64 -48.4005 -10.2695
LeftHand  -0.118681 2.79959 4.78535
RightShoulder  -0.301084 -4.42165 25.619
RightArm  -6.07176 1.57501 35.5533
RightForeArm  25.4654 54.6116 13.7345
RightHand  -0.608743 7.1357 -5.98398
LeftUpLeg  -9.25278 16.7977 -6.85589
LeftLeg  47.0173 4.10908 5.1498
LeftFoot  -27.4739 0.348231 1.28998
LeftToes  -8.26734e-010 9.74065e-011 1.64617e-011
623
root  -28.4134 36.3178 2.13076 -36.8383 -71.7364 31.2191
RightUpLeg  -22.6675 -11.8318 -24.013
RightLeg  46.1286 1.14845 0.963441
RightFoot  -15.4191 0.15748 7.37424
RightToes  9.54606e-009 0 -3.6325e-017
Spine  25.6938 -2.09103 1.51376
Spine1  2.72041 -6.09686 19.0042
HEad  -38.0805 2.00092 -10.7635
LeftShoulder1  0.659162 1.26953 -23.196
LeftArm  -6.24054 -39.3156 -48.602
LeftForeArm  32.7064 -52.5402 -12.0301
LeftHand  -0.125819 2.80116 5.12979
RightShoulder  -0.333726 -4.52085 25.6904
RightArm  -4.65452 0.633122 35.4155
RightForeArm  24.0796 52.2824 12.6239
RightHand  -0.601876 7.27307 -5.86011
LeftUpLeg  -4.8274 17.0429 -4.46559
LeftLeg  43.2179 4.3125 4.74652
LeftFoot  -26.347 0.0931101 -0.494934
LeftToes  -8.26734e-010 9.74065e-011 1.64617e-011
624
root  -29.5129 36.7828 1.76436 -38.0183 -73.3804 31.8041
RightUpLeg  -19.6283 -12.8902 -22.3905
RightLeg  44.057 2.69596 2.48873
RightFoot  -16.2949 0.167553 6.4178
RightToes  9.54606e-009 0 -3.6325e-017
Spine  23.0235 -2.2564 2.04933
Spine1  3.02237 -6.24161 18.9917
HEad  -35.4529 2.78618 -11.314
LeftShoulder1  0.567229 1.62386 -23.9055
LeftArm  -3.62918 -37.2871 -48.0135
LeftForeArm  33.3988 -56.1752 -13.9012
LeftHand  -0.125374 2.98813 5.46173
RightShoulder  -0.415947 -4.75813 26.232
RightArm  -2.42923 0.584649 35.0311
RightForeArm  21.5456 49.4423 11.4866
RightHand  -0.637394 7.40942 -6.12946
LeftUpLeg  -0.888494 17.4767 -1.61221
LeftLeg  40.1226 3.97295 3.97645
LeftFoot  -24.4505 -0.175398 -2.82188
LeftToes  -8.26734e-010 9.74065e-011 1.64617e-011
